HIERARCHY
ROOT Hips
{
	OFFSET	0.00	0.00	0.00
	CHANNELS 6 Xposition Yposition Zposition Zrotation Xrotation Yrotation
	JOINT LeftUpLeg
	{
		OFFSET	 0.126116	-0.065224	 0.014019
		CHANNELS 3 Zrotation Xrotation Yrotation
		JOINT LeftLeg
		{
			OFFSET	 0.000000	 0.569914	 0.000000
			CHANNELS 3 Zrotation Xrotation Yrotation
			JOINT LeftFoot
			{
				OFFSET	 0.000000	 0.544423	 0.000000
				CHANNELS 3 Zrotation Xrotation Yrotation
				JOINT LeftToeBase
				{
					OFFSET	 0.000000	 0.207117	 0.000000
					CHANNELS 3 Zrotation Xrotation Yrotation
					End Site
					{
						OFFSET	 0.000000	 0.207117	 0.000000
					}
				}
			}
		}
	}
	JOINT RightUpLeg
	{
		OFFSET	-0.124023	-0.065224	 0.008373
		CHANNELS 3 Zrotation Xrotation Yrotation
		JOINT RightLeg
		{
			OFFSET	 0.000000	 0.570047	 0.000000
			CHANNELS 3 Zrotation Xrotation Yrotation
			JOINT RightFoot
			{
				OFFSET	 0.000000	 0.544354	 0.000000
				CHANNELS 3 Zrotation Xrotation Yrotation
				JOINT RightToeBase
				{
					OFFSET	 0.000000	 0.207540	 0.000000
					CHANNELS 3 Zrotation Xrotation Yrotation
					End Site
					{
						OFFSET	 0.000000	 0.207540	 0.000000
					}
				}
			}
		}
	}
	JOINT Spine
	{
		OFFSET	 0.000184	 0.117403	 0.007763
		CHANNELS 3 Zrotation Xrotation Yrotation
		JOINT Spine1
		{
			OFFSET	 0.000000	 0.137269	 0.000000
			CHANNELS 3 Zrotation Xrotation Yrotation
			JOINT Spine2
			{
				OFFSET	 0.000000	 0.156879	 0.000000
				CHANNELS 3 Zrotation Xrotation Yrotation
				JOINT LeftShoulder
				{
					OFFSET	 0.080501	 0.160143	 0.002496
					CHANNELS 3 Zrotation Xrotation Yrotation
					JOINT LeftArm
					{
						OFFSET	 0.000000	 0.164363	 0.000000
						CHANNELS 3 Zrotation Xrotation Yrotation
						JOINT LeftForeArm
						{
							OFFSET	 0.000000	 0.364576	 0.000000
							CHANNELS 3 Zrotation Xrotation Yrotation
							JOINT LeftHand
							{
								OFFSET	 0.000000	 0.360812	 0.000000
								CHANNELS 3 Zrotation Xrotation Yrotation
								JOINT LeftHandIndex1
								{
									OFFSET	 0.000000	 0.086006	 0.000000
									CHANNELS 3 Zrotation Xrotation Yrotation
									JOINT LeftHandIndex2
									{
										OFFSET	 0.000000	 0.047237	 0.000000
										CHANNELS 3 Zrotation Xrotation Yrotation
										JOINT LeftHandIndex3
										{
											OFFSET	-0.004284	 0.038165	 0.000551
											CHANNELS 3 Zrotation Xrotation Yrotation
											End Site
											{
												OFFSET	-0.004284	 0.038165	 0.000551
											}
										}
									}
								}
							}
						}
					}
				}
				JOINT Neck
				{
					OFFSET	 0.000000	 0.176489	 0.000000
					CHANNELS 3 Zrotation Xrotation Yrotation
					JOINT Head
					{
						OFFSET	 0.000000	 0.077941	 0.001747
						CHANNELS 3 Zrotation Xrotation Yrotation
						End Site
						{
							OFFSET	 0.000000	 0.077941	 0.001747
						}
					}
				}
				JOINT RightShoulder
				{
					OFFSET	-0.080363	 0.159706	-0.000306
					CHANNELS 3 Zrotation Xrotation Yrotation
					JOINT RightArm
					{
						OFFSET	 0.000000	 0.164196	 0.000000
						CHANNELS 3 Zrotation Xrotation Yrotation
						JOINT RightForeArm
						{
							OFFSET	 0.000000	 0.365611	 0.000000
							CHANNELS 3 Zrotation Xrotation Yrotation
							JOINT RightHand
							{
								OFFSET	 0.000000	 0.360648	 0.000000
								CHANNELS 3 Zrotation Xrotation Yrotation
								JOINT RightHandIndex1
								{
									OFFSET	 0.000000	 0.069977	 0.000000
									CHANNELS 3 Zrotation Xrotation Yrotation
									JOINT RightHandIndex2
									{
										OFFSET	 0.000000	 0.052305	 0.000000
										CHANNELS 3 Zrotation Xrotation Yrotation
										JOINT RightHandIndex3
										{
											OFFSET	 0.009002	 0.042196	 0.000782
											CHANNELS 3 Zrotation Xrotation Yrotation
											End Site
											{
												OFFSET	 0.009002	 0.042196	 0.000782
											}
										}
									}
								}
							}
						}
					}
				}
			}
		}
	}
}
MOTION
Frames:    10
Frame Time: 0.03333334
-0.001354	 1.235960	-4.436483	 0.579151	 2.696847	-172.331900	-162.816200	 1.876602	-31.011220	 15.583700	-63.738900	 15.471630	-25.058930	 60.549440	 21.936640	 2.897037	 45.309030	-3.164370	 173.656600	 24.132020	 32.126220	-3.161427	-36.257630	 3.905810	-25.294470	 67.220890	 16.999220	-1.567942	 31.918430	 2.836848	 2.562099	 7.958828	-5.967340	 0.718371	 2.517371	-1.620745	 0.031523	-3.094901	-1.155478	-120.421800	 7.925642	 94.205100	 38.127230	 3.463685	-15.663350	 24.773730	-0.239180	 19.057760	-2.022814	-1.994441	 8.733591	 5.003336	 23.231240	-2.055878	-5.874660	 26.429620	 2.931247	 5.591364	 10.518590	-0.070431	 0.021890	-5.006076	-0.039071	-1.815495	-1.214617	-2.712344	 119.697500	-1.189257	-90.315900	 9.669553	 43.166940	-6.779062	-41.590810	-0.731718	-19.421250	-1.234682	-19.791690	-20.997840	-2.173502	 14.922500	 1.209817	 13.774910	 34.503470	-8.246014	-8.492770	 12.252060	-0.471860
 0.002538	 1.248903	-4.548489	 1.142926	 3.486325	-173.935600	-158.916900	 9.271217	-36.413450	 23.361130	-71.516750	 22.961210	-19.765400	 58.135730	 19.587120	 1.880460	 35.388330	-2.882914	 175.943800	 17.448480	 30.989820	-3.072204	-35.479500	 1.742558	-28.007970	 69.756990	 22.689150	-1.480168	 30.828920	 2.795397	 3.856646	 8.061863	-11.587300	 0.548270	 2.609398	-1.049930	 0.100789	-3.009012	-0.931351	-120.196400	 7.504890	 93.981900	 43.047770	 10.376240	-18.325050	 27.162200	-0.258433	 20.909500	-9.993547	-8.017079	 17.649520	 4.987381	 24.181740	-2.108158	-5.881543	 27.232650	 3.023896	 5.635966	 11.593110	-0.056012	 0.070285	-4.934731	-0.161484	-1.867212	-1.177092	-3.019949	 119.969400	-0.696851	-90.557440	 1.732844	 45.033850	-1.984155	-42.525530	-0.689071	-21.252230	-1.242256	-26.859170	-18.626610	-2.406220	 17.235060	 1.336962	 14.119020	 36.708910	-8.919621	-8.507797	 13.953840	-0.579288
 0.002885	 1.259817	-4.677757	 0.678140	 3.002141	-175.782000	-157.412000	 20.392660	-44.942660	 24.014120	-71.959680	 21.219010	-12.737080	 64.821030	 17.227110	 1.497909	 31.061100	-2.804927	 176.789200	 10.390520	 29.686020	-2.834842	-33.334310	-0.281782	-35.594680	 72.768220	 32.110910	-1.596275	 32.264970	 2.850550	 4.025383	 7.585778	-17.872410	 0.475411	 2.738893	-0.270197	-0.017972	-3.116888	-0.672455	-120.129200	 6.639517	 93.557800	 16.504700	 32.201280	-8.289308	 85.869060	-1.773932	 25.054540	-42.629510	-17.552170	 27.829550	 5.015164	 25.728220	-2.149084	-5.897175	 28.630370	 3.187082	 5.700377	 13.148820	-0.036553	 0.100531	-4.863879	-0.336082	-2.154709	-1.493633	-3.315387	 119.868800	 0.042517	-90.906780	-14.868710	 46.297380	 6.774928	-33.242520	-0.334877	-22.759680	-10.814570	-35.167290	-16.990530	-2.622458	 18.612240	 1.436818	 14.363920	 38.129970	-9.373742	-8.517728	 15.348880	-0.667631
-0.007367	 1.245607	-5.029335	-1.543111	 0.742476	 179.210000	-179.760000	 27.613050	-44.298700	 0.672486	-5.060170	-5.915843	-8.545839	 59.723220	 26.565000	 1.264989	 28.066460	-2.701640	 175.288500	-7.816742	 24.749280	-2.193309	-26.974860	-6.693001	-48.963330	 73.507170	 53.575180	-2.769568	 44.396030	 3.490595	 2.355866	 6.723846	-29.673430	-0.139846	 4.083950	 1.632288	-0.182358	-4.016503	 0.241753	-119.888500	 3.902165	 92.220540	-22.066000	 49.465040	 20.146340	 97.391590	-1.660881	 27.582340	-42.469090	-24.219140	 47.926880	 4.971894	 28.522500	-2.051006	-5.973414	 32.803580	 3.691634	 5.905946	 18.121070	 0.014361	 0.094297	-4.857537	-0.757126	-2.676447	-2.497064	-4.121861	 119.440400	 1.759664	-91.701390	-28.159310	 37.126050	 7.824140	-39.668820	-0.464767	-24.854040	-20.046630	-37.113860	-12.004730	-2.960602	 21.092790	 1.575036	 14.940700	 41.094910	-10.379860	-8.532594	 18.692320	-0.881081
-0.028578	 1.204605	-5.363217	-3.268183	 0.975152	 176.756700	-176.164000	 35.759040	-42.959050	 3.580044	-25.225180	-3.742139	-5.821701	 67.461320	 23.998140	 1.324676	 28.849950	-2.727029	 169.147200	-15.925770	 18.826510	-3.117285	-35.874660	-2.614679	 7.875453	 55.895440	 7.821286	-7.536565	 63.113850	 11.040010	 0.929137	 7.961076	-30.545640	-0.490104	 3.873959	 2.096790	-0.364631	-4.232474	 0.528859	-120.201900	 3.418499	 91.998260	 32.978600	 33.332570	-21.601070	 28.321370	-0.227006	 22.610760	-30.396970	-1.536520	 54.506330	 4.538481	 23.751380	-1.638007	-5.922278	 30.305960	 3.386297	 5.825672	 16.180930	-0.003442	-0.045807	-5.152368	-0.769898	-2.134478	-2.260359	-4.539063	 119.453900	 1.514034	-91.586050	-12.003430	 26.279870	 2.449343	-59.379950	-1.040760	-23.447040	-8.034309	-16.259140	-12.377380	-2.825326	 23.883880	 1.515707	 15.675520	 44.281860	-11.566440	-8.534593	 21.881420	-1.088126
-0.039083	 1.209070	-5.499708	-4.549201	 1.518881	 176.407100	-178.254500	 30.165090	-41.710070	 4.319496	-29.606940	 0.485401	 8.030562	 61.193290	 11.222760	 1.414983	 30.014340	-2.766868	 164.343200	-15.502350	 20.192730	-3.887260	-42.037560	 2.734027	 18.202990	 32.796660	-5.971748	-13.841380	 70.079100	 20.276720	 0.073120	 9.402297	-27.942250	-0.533923	 3.589641	 1.955288	-0.607579	-4.372799	 0.586217	-120.900000	 4.008484	 92.318880	 32.769820	 38.192960	-21.351340	 26.444360	-0.231852	 20.763400	-31.053260	 0.368883	 53.780730	 4.346211	 20.192110	-1.507966	-5.875158	 26.494280	 2.938688	 5.653186	 12.008480	-0.050657	-0.111028	-5.250093	-0.709143	-1.971774	-1.906800	-4.548966	 119.331600	 1.115308	-91.390900	-5.590797	 30.974910	-1.817432	-62.170160	-1.163622	-21.730830	-3.139799	-11.914800	-17.298940	-2.763411	 25.295960	 1.490914	 16.043910	 45.688260	-12.131330	-8.531397	 23.322470	-1.183199
-0.043647	 1.218909	-5.611543	-4.349301	 1.960662	 178.793700	-179.214400	 26.080840	-39.435810	 4.991951	-33.284690	 0.513931	 4.071272	 66.228710	 13.051050	 1.387698	 29.665200	-2.754652	 162.936700	-6.447848	 21.761590	-6.454808	-56.222850	 1.083954	 17.828190	 43.790390	-7.452857	-4.599984	 53.269580	 8.917350	 0.456604	 9.531506	-26.992730	-0.422391	 3.289149	 1.419929	-0.517829	-4.059362	 0.399766	-121.422000	 4.742842	 92.708110	 12.052430	 48.590870	-6.182563	 47.981770	-1.200010	 19.744830	-31.712720	-4.434853	 48.226880	 4.401507	 20.339890	-1.598511	-5.864978	 24.735620	 2.738178	 5.530797	 9.064172	-0.091232	-0.137149	-5.163916	-0.583591	-2.302410	-1.720830	-4.174077	 119.213000	 0.886030	-91.277380	-1.790146	 37.781400	-5.749786	-54.514100	-1.071578	-19.778500	-4.522045	-10.445770	-21.569510	-2.724973	 25.989260	 1.473356	 16.173350	 46.156910	-12.325900	-8.529145	 23.955870	-1.225349
-0.046769	 1.238125	-5.732351	-3.925258	 2.444748	-177.884400	 179.895500	 20.230300	-35.900470	 5.401802	-35.383870	 0.919187	-2.498575	 71.264050	 16.311910	 1.365940	 29.385120	-2.745021	 161.270500	 7.589466	 25.912330	-11.186220	-68.813740	-2.229285	 13.008750	 55.176910	-6.407207	-1.596722	 32.245270	 3.083122	 0.744012	 9.488608	-23.894440	-0.000253	 2.988361	 0.551088	-0.473571	-3.650811	 0.086668	-121.990900	 5.720864	 93.231030	-44.518120	 44.257070	 41.207460	 112.661800	-1.880089	 20.018110	-52.301950	-10.742850	 41.707310	 4.510481	 20.440170	-1.712336	-5.861779	 22.575640	 2.496029	 5.378872	 5.452344	-0.149276	-0.165014	-5.031531	-0.400431	-2.673923	-1.525571	-3.631513	 119.028000	 0.579342	-91.125340	-11.521570	 45.509020	 0.776867	-22.348750	-0.205927	-16.140460	-14.947470	-6.661043	-26.327860	-2.665186	 26.789620	 1.444713	 16.314030	 46.652400	-12.535250	-8.525946	 24.676350	-1.273586
-0.046083	 1.263165	-5.926599	-3.277585	 1.695561	-174.844200	 179.415800	 9.042309	-32.067240	 4.572582	-31.152280	 4.852993	 1.577697	 76.598250	 6.909795	 1.485747	 30.908900	-2.799256	 160.580100	 22.866090	 34.531600	-6.908242	-57.810190	 4.219966	-0.249150	 62.937660	 0.091876	-1.695515	 33.351520	 3.338683	 0.320319	 8.849977	-15.203210	 0.433998	 3.495892	-0.585992	-0.311337	-3.840529	-0.666382	-121.503300	 7.012115	 93.841870	 45.939560	 11.233660	-20.478160	 16.265600	-0.239396	 11.039330	-15.279040	 18.603510	 25.040740	 4.635691	 19.039770	-1.669911	-5.863626	 21.578990	 2.385591	 5.334984	 4.421216	-0.167548	-0.164950	-4.981469	-0.182100	-2.239169	-1.881856	-3.179476	 118.559600	 0.122375	-90.894030	-0.215134	 45.067460	-5.378742	-23.023120	-0.431194	-11.140070	-3.641901	 8.448446	-28.833170	-2.492392	 26.286480	 1.361360	 16.000290	 45.527480	-12.065330	-8.527976	 24.237940	-1.244206
-0.045185	 1.284629	-5.904911	-2.114424	-2.221780	-175.608500	 179.076500	 11.252310	-32.638150	 3.376062	-24.160830	 3.590894	 0.059721	 71.750620	 9.287848	 1.471972	 30.735980	-2.792872	 167.734100	 29.141630	 33.031910	-2.025031	-25.170480	 7.030716	-12.961550	 32.705890	 0.816565	-1.710428	 33.463230	 3.575269	 1.552662	 10.417680	-12.264890	 2.152166	 23.434730	-1.853265	-0.820724	-12.886610	-0.437515	-121.579200	 6.797638	 93.740500	 54.565330	-14.764750	-20.254410	 14.443440	-0.216071	 9.746578	-21.437380	 35.570670	 20.713250	 4.641726	 19.135370	-1.677733	-5.863467	 21.635420	 2.391826	 5.336796	 4.463584	-0.166783	-0.163158	-4.966799	-0.201614	-2.307621	-1.802158	-3.200161	 118.630400	 0.193110	-90.929470	-20.990680	 40.964360	 8.476506	-15.563590	-0.205935	-9.772181	-12.344400	 8.334524	-24.999090	-2.520801	 26.439860	 1.374547	 16.077820	 45.812290	-12.182500	-8.527403	 24.367050	-1.252848
